# xmcd
#
# Track frame offsets:
#	150
#	15107
#	29257
#	41557
#	54082
#	65220
#	76787
#	90197
#	103747
#	115480
#	127232
#	138785
#	150022
#	163085
#	176730
#
# Disc length: 2545 seconds
#
# Revision: 8
# Processed by: cddbd v1.5.2PL0 Copyright (c) Steve Scherf et al.
# Submitted via: audiograbber 1.83.01
#
DISCID=b009ef0f
DTITLE=Glen Campbell - The Very Best Of Glen Campbell
DYEAR=1987
DGENRE=Country
TTITLE0=Rhinestone Cowboy
TTITLE1=Wichita Lineman
TTITLE2=Galveston
TTITLE3=By The Time I Get To Phoenix
TTITLE4=Try A Little Kindness
TTITLE5=Hey Little One
TTITLE6=Where's The Playground Susie
TTITLE7=Gentle On My Mind
TTITLE8=Dreams Of The Everyday Housewife
TTITLE9=All I Have To Do Is Dream (with Bobbie Gentry)
TTITLE10=Dream Baby (How Long Must I Dream)
TTITLE11=It's Only Make Believe
TTITLE12=Sunflower
TTITLE13=Southern Nights
TTITLE14=Country Boy (You Got Your Feet In L.A.)
EXTD=
EXTT0=
EXTT1=
EXTT2=
EXTT3=
EXTT4=
EXTT5=
EXTT6=
EXTT7=
EXTT8=
EXTT9=
EXTT10=
EXTT11=
EXTT12=
EXTT13=
EXTT14=
PLAYORDER=
